<?xml version="1.0" encoding="utf-8" standalone="no"?>
<!DOCTYPE svg PUBLIC "-//W3C//DTD SVG 1.1//EN"
  "http://www.w3.org/Graphics/SVG/1.1/DTD/svg11.dtd">
<svg xmlns:xlink="http://www.w3.org/1999/xlink" width="661.68pt" height="417.6pt" viewBox="0 0 661.68 417.6" xmlns="http://www.w3.org/2000/svg" version="1.1">
 <metadata>
  <rdf:RDF xmlns:dc="http://purl.org/dc/elements/1.1/" xmlns:cc="http://creativecommons.org/ns#" xmlns:rdf="http://www.w3.org/1999/02/22-rdf-syntax-ns#">
   <cc:Work>
    <dc:type rdf:resource="http://purl.org/dc/dcmitype/StillImage"/>
    <dc:date>2026-07-31T00:38:14.663861</dc:date>
    <dc:format>image/svg+xml</dc:format>
    <dc:creator>
     <cc:Agent>
      <dc:title>Matplotlib v3.10.6, https://matplotlib.org/</dc:title>
     </cc:Agent>
    </dc:creator>
   </cc:Work>
  </rdf:RDF>
 </metadata>
 <defs>
  <style type="text/css">*{stroke-linejoin: round; stroke-linecap: butt}</style>
 </defs>
 <g id="figure_1">
  <g id="patch_1">
   <path d="M 0 417.6 
L 661.68 417.6 
L 661.68 0 
L 0 0 
z
" style="fill: #ffffff"/>
  </g>
  <g id="axes_1">
   <g id="patch_2">
    <path d="M 44.615 374.956 
L 650.88 374.956 
L 650.88 26.16 
L 44.615 26.16 
z
" style="fill: #ffffff"/>
   </g>
   <g id="FillBetweenPolyCollection_1">
    <path d="M 72.1725 348.147172 
L 72.1725 359.101636 
L 175.734591 349.599672 
L 279.296681 348.288774 
L 382.858772 338.033789 
L 519.760409 331.327693 
L 623.3225 299.543003 
L 623.3225 224.908288 
L 623.3225 224.908288 
L 519.760409 284.060588 
L 382.858772 309.063821 
L 279.296681 328.490578 
L 175.734591 334.926267 
L 72.1725 348.147172 
z
" clip-path="url(#p9da7ddfa3b)" style="fill: #1f77b4; fill-opacity: 0.12"/>
   </g>
   <g id="FillBetweenPolyCollection_2">
    <path d="M 72.1725 266.975671 
L 72.1725 282.560053 
L 175.734591 260.73716 
L 279.296681 234.896697 
L 382.858772 206.816426 
L 519.760409 165.985087 
L 623.3225 140.225072 
L 623.3225 42.014364 
L 623.3225 42.014364 
L 519.760409 99.349935 
L 382.858772 167.053276 
L 279.296681 207.150255 
L 175.734591 240.984947 
L 72.1725 266.975671 
z
" clip-path="url(#p9da7ddfa3b)" style="fill: #ff7f0e; fill-opacity: 0.12"/>
   </g>
   <g id="FillBetweenPolyCollection_3">
    <path d="M 72.1725 313.599096 
L 72.1725 326.43277 
L 175.734591 308.697611 
L 279.296681 294.681348 
L 382.858772 274.749691 
L 519.760409 252.732766 
L 623.3225 224.908288 
L 623.3225 138.676342 
L 623.3225 138.676342 
L 519.760409 196.460212 
L 382.858772 240.655492 
L 279.296681 271.16154 
L 175.734591 291.66119 
L 72.1725 313.599096 
z
" clip-path="url(#p9da7ddfa3b)" style="fill: #2ca02c; fill-opacity: 0.12"/>
   </g>
   <g id="FillBetweenPolyCollection_4">
    <path d="M 72.1725 348.147172 
L 72.1725 359.101636 
L 175.734591 312.29422 
L 279.296681 265.209492 
L 382.858772 228.760299 
L 519.760409 182.857803 
L 623.3225 151.057087 
L 623.3225 56.124782 
L 623.3225 56.124782 
L 519.760409 118.957764 
L 382.858772 190.68033 
L 279.296681 239.453425 
L 175.734591 295.435763 
L 72.1725 348.147172 
z
" clip-path="url(#p9da7ddfa3b)" style="fill: #d62728; fill-opacity: 0.12"/>
   </g>
   <g id="FillBetweenPolyCollection_5">
    <path d="M 72.1725 266.975671 
L 72.1725 282.560053 
L 175.734591 303.721859 
L 279.296681 321.522836 
L 382.858772 318.013605 
L 519.760409 315.123871 
L 623.3225 287.447157 
L 623.3225 211.117395 
L 623.3225 211.117395 
L 519.760409 266.079703 
L 382.858772 286.952841 
L 279.296681 300.016316 
L 175.734591 286.436054 
L 72.1725 266.975671 
z
" clip-path="url(#p9da7ddfa3b)" style="fill: #9467bd; fill-opacity: 0.12"/>
   </g>
   <g id="matplotlib.axis_1">
    <g id="xtick_1">
     <g id="line2d_1">
      <path d="M 519.760409 374.956 
L 519.760409 26.16 
" clip-path="url(#p9da7ddfa3b)" style="fill: none; stroke: #b0b0b0; stroke-opacity: 0.25; stroke-width: 0.8; stroke-linecap: square"/>
     </g>
     <g id="line2d_2">
      <defs>
       <path id="mc259821d2d" d="M 0 0 
L 0 3.5 
" style="stroke: #000000; stroke-width: 0.8"/>
      </defs>
      <g>
       <use xlink:href="#mc259821d2d" x="519.760409" y="374.956" style="stroke: #000000; stroke-width: 0.8"/>
      </g>
     </g>
     <g id="text_1">
      <!-- $\mathdefault{10^{-2}}$ -->
      <g transform="translate(508.010409 389.554437) scale(0.1 -0.1)">
       <defs>
        <path id="DejaVuSans-31" d="M 794 531 
L 1825 531 
L 1825 4091 
L 703 3866 
L 703 4441 
L 1819 4666 
L 2450 4666 
L 2450 531 
L 3481 531 
L 3481 0 
L 794 0 
L 794 531 
z
" transform="scale(0.015625)"/>
        <path id="DejaVuSans-30" d="M 2034 4250 
Q 1547 4250 1301 3770 
Q 1056 3291 1056 2328 
Q 1056 1369 1301 889 
Q 1547 409 2034 409 
Q 2525 409 2770 889 
Q 3016 1369 3016 2328 
Q 3016 3291 2770 3770 
Q 2525 4250 2034 4250 
z
M 2034 4750 
Q 2819 4750 3233 4129 
Q 3647 3509 3647 2328 
Q 3647 1150 3233 529 
Q 2819 -91 2034 -91 
Q 1250 -91 836 529 
Q 422 1150 422 2328 
Q 422 3509 836 4129 
Q 1250 4750 2034 4750 
z
" transform="scale(0.015625)"/>
        <path id="DejaVuSans-2212" d="M 678 2272 
L 4684 2272 
L 4684 1741 
L 678 1741 
L 678 2272 
z
" transform="scale(0.015625)"/>
        <path id="DejaVuSans-32" d="M 1228 531 
L 3431 531 
L 3431 0 
L 469 0 
L 469 531 
Q 828 903 1448 1529 
Q 2069 2156 2228 2338 
Q 2531 2678 2651 2914 
Q 2772 3150 2772 3378 
Q 2772 3750 2511 3984 
Q 2250 4219 1831 4219 
Q 1534 4219 1204 4116 
Q 875 4013 500 3803 
L 500 4441 
Q 881 4594 1212 4672 
Q 1544 4750 1819 4750 
Q 2544 4750 2975 4387 
Q 3406 4025 3406 3419 
Q 3406 3131 3298 2873 
Q 3191 2616 2906 2266 
Q 2828 2175 2409 1742 
Q 1991 1309 1228 531 
z
" transform="scale(0.015625)"/>
       </defs>
       <use xlink:href="#DejaVuSans-31" transform="translate(0 0.765625)"/>
       <use xlink:href="#DejaVuSans-30" transform="translate(63.623047 0.765625)"/>
       <use xlink:href="#DejaVuSans-2212" transform="translate(128.203125 39.046875) scale(0.7)"/>
       <use xlink:href="#DejaVuSans-32" transform="translate(186.855469 39.046875) scale(0.7)"/>
      </g>
     </g>
    </g>
    <g id="xtick_2">
     <g id="line2d_3">
      <path d="M 175.734591 374.956 
L 175.734591 26.16 
" clip-path="url(#p9da7ddfa3b)" style="fill: none; stroke: #b0b0b0; stroke-opacity: 0.25; stroke-width: 0.8; stroke-linecap: square"/>
     </g>
     <g id="line2d_4">
      <g>
       <use xlink:href="#mc259821d2d" x="175.734591" y="374.956" style="stroke: #000000; stroke-width: 0.8"/>
      </g>
     </g>
     <g id="text_2">
      <!-- $\mathdefault{10^{-1}}$ -->
      <g transform="translate(163.984591 389.554437) scale(0.1 -0.1)">
       <use xlink:href="#DejaVuSans-31" transform="translate(0 0.684375)"/>
       <use xlink:href="#DejaVuSans-30" transform="translate(63.623047 0.684375)"/>
       <use xlink:href="#DejaVuSans-2212" transform="translate(128.203125 38.965625) scale(0.7)"/>
       <use xlink:href="#DejaVuSans-31" transform="translate(186.855469 38.965625) scale(0.7)"/>
      </g>
     </g>
    </g>
    <g id="xtick_3">
     <g id="line2d_5">
      <defs>
       <path id="m5b6aebda5a" d="M 0 0 
L 0 2 
" style="stroke: #000000; stroke-width: 0.6"/>
      </defs>
      <g>
       <use xlink:href="#m5b6aebda5a" x="623.3225" y="374.956" style="stroke: #000000; stroke-width: 0.6"/>
      </g>
     </g>
    </g>
    <g id="xtick_4">
     <g id="line2d_6">
      <g>
       <use xlink:href="#m5b6aebda5a" x="596.082107" y="374.956" style="stroke: #000000; stroke-width: 0.6"/>
      </g>
     </g>
    </g>
    <g id="xtick_5">
     <g id="line2d_7">
      <g>
       <use xlink:href="#m5b6aebda5a" x="573.050683" y="374.956" style="stroke: #000000; stroke-width: 0.6"/>
      </g>
     </g>
    </g>
    <g id="xtick_6">
     <g id="line2d_8">
      <g>
       <use xlink:href="#m5b6aebda5a" x="553.099956" y="374.956" style="stroke: #000000; stroke-width: 0.6"/>
      </g>
     </g>
    </g>
    <g id="xtick_7">
     <g id="line2d_9">
      <g>
       <use xlink:href="#m5b6aebda5a" x="535.502167" y="374.956" style="stroke: #000000; stroke-width: 0.6"/>
      </g>
     </g>
    </g>
    <g id="xtick_8">
     <g id="line2d_10">
      <g>
       <use xlink:href="#m5b6aebda5a" x="416.198319" y="374.956" style="stroke: #000000; stroke-width: 0.6"/>
      </g>
     </g>
    </g>
    <g id="xtick_9">
     <g id="line2d_11">
      <g>
       <use xlink:href="#m5b6aebda5a" x="355.618379" y="374.956" style="stroke: #000000; stroke-width: 0.6"/>
      </g>
     </g>
    </g>
    <g id="xtick_10">
     <g id="line2d_12">
      <g>
       <use xlink:href="#m5b6aebda5a" x="312.636228" y="374.956" style="stroke: #000000; stroke-width: 0.6"/>
      </g>
     </g>
    </g>
    <g id="xtick_11">
     <g id="line2d_13">
      <g>
       <use xlink:href="#m5b6aebda5a" x="279.296681" y="374.956" style="stroke: #000000; stroke-width: 0.6"/>
      </g>
     </g>
    </g>
    <g id="xtick_12">
     <g id="line2d_14">
      <g>
       <use xlink:href="#m5b6aebda5a" x="252.056288" y="374.956" style="stroke: #000000; stroke-width: 0.6"/>
      </g>
     </g>
    </g>
    <g id="xtick_13">
     <g id="line2d_15">
      <g>
       <use xlink:href="#m5b6aebda5a" x="229.024864" y="374.956" style="stroke: #000000; stroke-width: 0.6"/>
      </g>
     </g>
    </g>
    <g id="xtick_14">
     <g id="line2d_16">
      <g>
       <use xlink:href="#m5b6aebda5a" x="209.074137" y="374.956" style="stroke: #000000; stroke-width: 0.6"/>
      </g>
     </g>
    </g>
    <g id="xtick_15">
     <g id="line2d_17">
      <g>
       <use xlink:href="#m5b6aebda5a" x="191.476349" y="374.956" style="stroke: #000000; stroke-width: 0.6"/>
      </g>
     </g>
    </g>
    <g id="xtick_16">
     <g id="line2d_18">
      <g>
       <use xlink:href="#m5b6aebda5a" x="72.1725" y="374.956" style="stroke: #000000; stroke-width: 0.6"/>
      </g>
     </g>
    </g>
    <g id="text_3">
     <!-- Local alpha (smaller = deeper tail) -->
     <g transform="translate(261.005313 403.232562) scale(0.1 -0.1)">
      <defs>
       <path id="DejaVuSans-4c" d="M 628 4666 
L 1259 4666 
L 1259 531 
L 3531 531 
L 3531 0 
L 628 0 
L 628 4666 
z
" transform="scale(0.015625)"/>
       <path id="DejaVuSans-6f" d="M 1959 3097 
Q 1497 3097 1228 2736 
Q 959 2375 959 1747 
Q 959 1119 1226 758 
Q 1494 397 1959 397 
Q 2419 397 2687 759 
Q 2956 1122 2956 1747 
Q 2956 2369 2687 2733 
Q 2419 3097 1959 3097 
z
M 1959 3584 
Q 2709 3584 3137 3096 
Q 3566 2609 3566 1747 
Q 3566 888 3137 398 
Q 2709 -91 1959 -91 
Q 1206 -91 779 398 
Q 353 888 353 1747 
Q 353 2609 779 3096 
Q 1206 3584 1959 3584 
z
" transform="scale(0.015625)"/>
       <path id="DejaVuSans-63" d="M 3122 3366 
L 3122 2828 
Q 2878 2963 2633 3030 
Q 2388 3097 2138 3097 
Q 1578 3097 1268 2742 
Q 959 2388 959 1747 
Q 959 1106 1268 751 
Q 1578 397 2138 397 
Q 2388 397 2633 464 
Q 2878 531 3122 666 
L 3122 134 
Q 2881 22 2623 -34 
Q 2366 -91 2075 -91 
Q 1284 -91 818 406 
Q 353 903 353 1747 
Q 353 2603 823 3093 
Q 1294 3584 2113 3584 
Q 2378 3584 2631 3529 
Q 2884 3475 3122 3366 
z
" transform="scale(0.015625)"/>
       <path id="DejaVuSans-61" d="M 2194 1759 
Q 1497 1759 1228 1600 
Q 959 1441 959 1056 
Q 959 750 1161 570 
Q 1363 391 1709 391 
Q 2188 391 2477 730 
Q 2766 1069 2766 1631 
L 2766 1759 
L 2194 1759 
z
M 3341 1997 
L 3341 0 
L 2766 0 
L 2766 531 
Q 2569 213 2275 61 
Q 1981 -91 1556 -91 
Q 1019 -91 701 211 
Q 384 513 384 1019 
Q 384 1609 779 1909 
Q 1175 2209 1959 2209 
L 2766 2209 
L 2766 2266 
Q 2766 2663 2505 2880 
Q 2244 3097 1772 3097 
Q 1472 3097 1187 3025 
Q 903 2953 641 2809 
L 641 3341 
Q 956 3463 1253 3523 
Q 1550 3584 1831 3584 
Q 2591 3584 2966 3190 
Q 3341 2797 3341 1997 
z
" transform="scale(0.015625)"/>
       <path id="DejaVuSans-6c" d="M 603 4863 
L 1178 4863 
L 1178 0 
L 603 0 
L 603 4863 
z
" transform="scale(0.015625)"/>
       <path id="DejaVuSans-20" transform="scale(0.015625)"/>
       <path id="DejaVuSans-70" d="M 1159 525 
L 1159 -1331 
L 581 -1331 
L 581 3500 
L 1159 3500 
L 1159 2969 
Q 1341 3281 1617 3432 
Q 1894 3584 2278 3584 
Q 2916 3584 3314 3078 
Q 3713 2572 3713 1747 
Q 3713 922 3314 415 
Q 2916 -91 2278 -91 
Q 1894 -91 1617 61 
Q 1341 213 1159 525 
z
M 3116 1747 
Q 3116 2381 2855 2742 
Q 2594 3103 2138 3103 
Q 1681 3103 1420 2742 
Q 1159 2381 1159 1747 
Q 1159 1113 1420 752 
Q 1681 391 2138 391 
Q 2594 391 2855 752 
Q 3116 1113 3116 1747 
z
" transform="scale(0.015625)"/>
       <path id="DejaVuSans-68" d="M 3513 2113 
L 3513 0 
L 2938 0 
L 2938 2094 
Q 2938 2591 2744 2837 
Q 2550 3084 2163 3084 
Q 1697 3084 1428 2787 
Q 1159 2491 1159 1978 
L 1159 0 
L 581 0 
L 581 4863 
L 1159 4863 
L 1159 2956 
Q 1366 3272 1645 3428 
Q 1925 3584 2291 3584 
Q 2894 3584 3203 3211 
Q 3513 2838 3513 2113 
z
" transform="scale(0.015625)"/>
       <path id="DejaVuSans-28" d="M 1984 4856 
Q 1566 4138 1362 3434 
Q 1159 2731 1159 2009 
Q 1159 1288 1364 580 
Q 1569 -128 1984 -844 
L 1484 -844 
Q 1016 -109 783 600 
Q 550 1309 550 2009 
Q 550 2706 781 3412 
Q 1013 4119 1484 4856 
L 1984 4856 
z
" transform="scale(0.015625)"/>
       <path id="DejaVuSans-73" d="M 2834 3397 
L 2834 2853 
Q 2591 2978 2328 3040 
Q 2066 3103 1784 3103 
Q 1356 3103 1142 2972 
Q 928 2841 928 2578 
Q 928 2378 1081 2264 
Q 1234 2150 1697 2047 
L 1894 2003 
Q 2506 1872 2764 1633 
Q 3022 1394 3022 966 
Q 3022 478 2636 193 
Q 2250 -91 1575 -91 
Q 1294 -91 989 -36 
Q 684 19 347 128 
L 347 722 
Q 666 556 975 473 
Q 1284 391 1588 391 
Q 1994 391 2212 530 
Q 2431 669 2431 922 
Q 2431 1156 2273 1281 
Q 2116 1406 1581 1522 
L 1381 1569 
Q 847 1681 609 1914 
Q 372 2147 372 2553 
Q 372 3047 722 3315 
Q 1072 3584 1716 3584 
Q 2034 3584 2315 3537 
Q 2597 3491 2834 3397 
z
" transform="scale(0.015625)"/>
       <path id="DejaVuSans-6d" d="M 3328 2828 
Q 3544 3216 3844 3400 
Q 4144 3584 4550 3584 
Q 5097 3584 5394 3201 
Q 5691 2819 5691 2113 
L 5691 0 
L 5113 0 
L 5113 2094 
Q 5113 2597 4934 2840 
Q 4756 3084 4391 3084 
Q 3944 3084 3684 2787 
Q 3425 2491 3425 1978 
L 3425 0 
L 2847 0 
L 2847 2094 
Q 2847 2600 2669 2842 
Q 2491 3084 2119 3084 
Q 1678 3084 1418 2786 
Q 1159 2488 1159 1978 
L 1159 0 
L 581 0 
L 581 3500 
L 1159 3500 
L 1159 2956 
Q 1356 3278 1631 3431 
Q 1906 3584 2284 3584 
Q 2666 3584 2933 3390 
Q 3200 3197 3328 2828 
z
" transform="scale(0.015625)"/>
       <path id="DejaVuSans-65" d="M 3597 1894 
L 3597 1613 
L 953 1613 
Q 991 1019 1311 708 
Q 1631 397 2203 397 
Q 2534 397 2845 478 
Q 3156 559 3463 722 
L 3463 178 
Q 3153 47 2828 -22 
Q 2503 -91 2169 -91 
Q 1331 -91 842 396 
Q 353 884 353 1716 
Q 353 2575 817 3079 
Q 1281 3584 2069 3584 
Q 2775 3584 3186 3129 
Q 3597 2675 3597 1894 
z
M 3022 2063 
Q 3016 2534 2758 2815 
Q 2500 3097 2075 3097 
Q 1594 3097 1305 2825 
Q 1016 2553 972 2059 
L 3022 2063 
z
" transform="scale(0.015625)"/>
       <path id="DejaVuSans-72" d="M 2631 2963 
Q 2534 3019 2420 3045 
Q 2306 3072 2169 3072 
Q 1681 3072 1420 2755 
Q 1159 2438 1159 1844 
L 1159 0 
L 581 0 
L 581 3500 
L 1159 3500 
L 1159 2956 
Q 1341 3275 1631 3429 
Q 1922 3584 2338 3584 
Q 2397 3584 2469 3576 
Q 2541 3569 2628 3553 
L 2631 2963 
z
" transform="scale(0.015625)"/>
       <path id="DejaVuSans-3d" d="M 678 2906 
L 4684 2906 
L 4684 2381 
L 678 2381 
L 678 2906 
z
M 678 1631 
L 4684 1631 
L 4684 1100 
L 678 1100 
L 678 1631 
z
" transform="scale(0.015625)"/>
       <path id="DejaVuSans-64" d="M 2906 2969 
L 2906 4863 
L 3481 4863 
L 3481 0 
L 2906 0 
L 2906 525 
Q 2725 213 2448 61 
Q 2172 -91 1784 -91 
Q 1150 -91 751 415 
Q 353 922 353 1747 
Q 353 2572 751 3078 
Q 1150 3584 1784 3584 
Q 2172 3584 2448 3432 
Q 2725 3281 2906 2969 
z
M 947 1747 
Q 947 1113 1208 752 
Q 1469 391 1925 391 
Q 2381 391 2643 752 
Q 2906 1113 2906 1747 
Q 2906 2381 2643 2742 
Q 2381 3103 1925 3103 
Q 1469 3103 1208 2742 
Q 947 2381 947 1747 
z
" transform="scale(0.015625)"/>
       <path id="DejaVuSans-74" d="M 1172 4494 
L 1172 3500 
L 2356 3500 
L 2356 3053 
L 1172 3053 
L 1172 1153 
Q 1172 725 1289 603 
Q 1406 481 1766 481 
L 2356 481 
L 2356 0 
L 1766 0 
Q 1100 0 847 248 
Q 594 497 594 1153 
L 594 3053 
L 172 3053 
L 172 3500 
L 594 3500 
L 594 4494 
L 1172 4494 
z
" transform="scale(0.015625)"/>
       <path id="DejaVuSans-69" d="M 603 3500 
L 1178 3500 
L 1178 0 
L 603 0 
L 603 3500 
z
M 603 4863 
L 1178 4863 
L 1178 4134 
L 603 4134 
L 603 4863 
z
" transform="scale(0.015625)"/>
       <path id="DejaVuSans-29" d="M 513 4856 
L 1013 4856 
Q 1481 4119 1714 3412 
Q 1947 2706 1947 2009 
Q 1947 1309 1714 600 
Q 1481 -109 1013 -844 
L 513 -844 
Q 928 -128 1133 580 
Q 1338 1288 1338 2009 
Q 1338 2731 1133 3434 
Q 928 4138 513 4856 
z
" transform="scale(0.015625)"/>
      </defs>
      <use xlink:href="#DejaVuSans-4c"/>
      <use xlink:href="#DejaVuSans-6f" transform="translate(53.962891 0)"/>
      <use xlink:href="#DejaVuSans-63" transform="translate(115.144531 0)"/>
      <use xlink:href="#DejaVuSans-61" transform="translate(170.125 0)"/>
      <use xlink:href="#DejaVuSans-6c" transform="translate(231.404297 0)"/>
      <use xlink:href="#DejaVuSans-20" transform="translate(259.1875 0)"/>
      <use xlink:href="#DejaVuSans-61" transform="translate(290.974609 0)"/>
      <use xlink:href="#DejaVuSans-6c" transform="translate(352.253906 0)"/>
      <use xlink:href="#DejaVuSans-70" transform="translate(380.037109 0)"/>
      <use xlink:href="#DejaVuSans-68" transform="translate(443.513672 0)"/>
      <use xlink:href="#DejaVuSans-61" transform="translate(506.892578 0)"/>
      <use xlink:href="#DejaVuSans-20" transform="translate(568.171875 0)"/>
      <use xlink:href="#DejaVuSans-28" transform="translate(599.958984 0)"/>
      <use xlink:href="#DejaVuSans-73" transform="translate(638.972656 0)"/>
      <use xlink:href="#DejaVuSans-6d" transform="translate(691.072266 0)"/>
      <use xlink:href="#DejaVuSans-61" transform="translate(788.484375 0)"/>
      <use xlink:href="#DejaVuSans-6c" transform="translate(849.763672 0)"/>
      <use xlink:href="#DejaVuSans-6c" transform="translate(877.546875 0)"/>
      <use xlink:href="#DejaVuSans-65" transform="translate(905.330078 0)"/>
      <use xlink:href="#DejaVuSans-72" transform="translate(966.853516 0)"/>
      <use xlink:href="#DejaVuSans-20" transform="translate(1007.966797 0)"/>
      <use xlink:href="#DejaVuSans-3d" transform="translate(1039.753906 0)"/>
      <use xlink:href="#DejaVuSans-20" transform="translate(1123.542969 0)"/>
      <use xlink:href="#DejaVuSans-64" transform="translate(1155.330078 0)"/>
      <use xlink:href="#DejaVuSans-65" transform="translate(1218.806641 0)"/>
      <use xlink:href="#DejaVuSans-65" transform="translate(1280.330078 0)"/>
      <use xlink:href="#DejaVuSans-70" transform="translate(1341.853516 0)"/>
      <use xlink:href="#DejaVuSans-65" transform="translate(1405.330078 0)"/>
      <use xlink:href="#DejaVuSans-72" transform="translate(1466.853516 0)"/>
      <use xlink:href="#DejaVuSans-20" transform="translate(1507.966797 0)"/>
      <use xlink:href="#DejaVuSans-74" transform="translate(1539.753906 0)"/>
      <use xlink:href="#DejaVuSans-61" transform="translate(1578.962891 0)"/>
      <use xlink:href="#DejaVuSans-69" transform="translate(1640.242188 0)"/>
      <use xlink:href="#DejaVuSans-6c" transform="translate(1668.025391 0)"/>
      <use xlink:href="#DejaVuSans-29" transform="translate(1695.808594 0)"/>
     </g>
    </g>
   </g>
   <g id="matplotlib.axis_2">
    <g id="ytick_1">
     <g id="line2d_19">
      <path d="M 44.615 350.510073 
L 650.88 350.510073 
" clip-path="url(#p9da7ddfa3b)" style="fill: none; stroke: #b0b0b0; stroke-opacity: 0.25; stroke-width: 0.8; stroke-linecap: square"/>
     </g>
     <g id="line2d_20">
      <defs>
       <path id="m5010030764" d="M 0 0 
L -3.5 0 
" style="stroke: #000000; stroke-width: 0.8"/>
      </defs>
      <g>
       <use xlink:href="#m5010030764" x="44.615" y="350.510073" style="stroke: #000000; stroke-width: 0.8"/>
      </g>
     </g>
     <g id="text_4">
      <!-- 4 -->
      <g transform="translate(31.2525 354.309292) scale(0.1 -0.1)">
       <defs>
        <path id="DejaVuSans-34" d="M 2419 4116 
L 825 1625 
L 2419 1625 
L 2419 4116 
z
M 2253 4666 
L 3047 4666 
L 3047 1625 
L 3713 1625 
L 3713 1100 
L 3047 1100 
L 3047 0 
L 2419 0 
L 2419 1100 
L 313 1100 
L 313 1709 
L 2253 4666 
z
" transform="scale(0.015625)"/>
       </defs>
       <use xlink:href="#DejaVuSans-34"/>
      </g>
     </g>
    </g>
    <g id="ytick_2">
     <g id="line2d_21">
      <path d="M 44.615 276.56679 
L 650.88 276.56679 
" clip-path="url(#p9da7ddfa3b)" style="fill: none; stroke: #b0b0b0; stroke-opacity: 0.25; stroke-width: 0.8; stroke-linecap: square"/>
     </g>
     <g id="line2d_22">
      <g>
       <use xlink:href="#m5010030764" x="44.615" y="276.56679" style="stroke: #000000; stroke-width: 0.8"/>
      </g>
     </g>
     <g id="text_5">
      <!-- 6 -->
      <g transform="translate(31.2525 280.366009) scale(0.1 -0.1)">
       <defs>
        <path id="DejaVuSans-36" d="M 2113 2584 
Q 1688 2584 1439 2293 
Q 1191 2003 1191 1497 
Q 1191 994 1439 701 
Q 1688 409 2113 409 
Q 2538 409 2786 701 
Q 3034 994 3034 1497 
Q 3034 2003 2786 2293 
Q 2538 2584 2113 2584 
z
M 3366 4563 
L 3366 3988 
Q 3128 4100 2886 4159 
Q 2644 4219 2406 4219 
Q 1781 4219 1451 3797 
Q 1122 3375 1075 2522 
Q 1259 2794 1537 2939 
Q 1816 3084 2150 3084 
Q 2853 3084 3261 2657 
Q 3669 2231 3669 1497 
Q 3669 778 3244 343 
Q 2819 -91 2113 -91 
Q 1303 -91 875 529 
Q 447 1150 447 2328 
Q 447 3434 972 4092 
Q 1497 4750 2381 4750 
Q 2619 4750 2861 4703 
Q 3103 4656 3366 4563 
z
" transform="scale(0.015625)"/>
       </defs>
       <use xlink:href="#DejaVuSans-36"/>
      </g>
     </g>
    </g>
    <g id="ytick_3">
     <g id="line2d_23">
      <path d="M 44.615 202.623507 
L 650.88 202.623507 
" clip-path="url(#p9da7ddfa3b)" style="fill: none; stroke: #b0b0b0; stroke-opacity: 0.25; stroke-width: 0.8; stroke-linecap: square"/>
     </g>
     <g id="line2d_24">
      <g>
       <use xlink:href="#m5010030764" x="44.615" y="202.623507" style="stroke: #000000; stroke-width: 0.8"/>
      </g>
     </g>
     <g id="text_6">
      <!-- 8 -->
      <g transform="translate(31.2525 206.422726) scale(0.1 -0.1)">
       <defs>
        <path id="DejaVuSans-38" d="M 2034 2216 
Q 1584 2216 1326 1975 
Q 1069 1734 1069 1313 
Q 1069 891 1326 650 
Q 1584 409 2034 409 
Q 2484 409 2743 651 
Q 3003 894 3003 1313 
Q 3003 1734 2745 1975 
Q 2488 2216 2034 2216 
z
M 1403 2484 
Q 997 2584 770 2862 
Q 544 3141 544 3541 
Q 544 4100 942 4425 
Q 1341 4750 2034 4750 
Q 2731 4750 3128 4425 
Q 3525 4100 3525 3541 
Q 3525 3141 3298 2862 
Q 3072 2584 2669 2484 
Q 3125 2378 3379 2068 
Q 3634 1759 3634 1313 
Q 3634 634 3220 271 
Q 2806 -91 2034 -91 
Q 1263 -91 848 271 
Q 434 634 434 1313 
Q 434 1759 690 2068 
Q 947 2378 1403 2484 
z
M 1172 3481 
Q 1172 3119 1398 2916 
Q 1625 2713 2034 2713 
Q 2441 2713 2670 2916 
Q 2900 3119 2900 3481 
Q 2900 3844 2670 4047 
Q 2441 4250 2034 4250 
Q 1625 4250 1398 4047 
Q 1172 3844 1172 3481 
z
" transform="scale(0.015625)"/>
       </defs>
       <use xlink:href="#DejaVuSans-38"/>
      </g>
     </g>
    </g>
    <g id="ytick_4">
     <g id="line2d_25">
      <path d="M 44.615 128.680224 
L 650.88 128.680224 
" clip-path="url(#p9da7ddfa3b)" style="fill: none; stroke: #b0b0b0; stroke-opacity: 0.25; stroke-width: 0.8; stroke-linecap: square"/>
     </g>
     <g id="line2d_26">
      <g>
       <use xlink:href="#m5010030764" x="44.615" y="128.680224" style="stroke: #000000; stroke-width: 0.8"/>
      </g>
     </g>
     <g id="text_7">
      <!-- 10 -->
      <g transform="translate(24.89 132.479443) scale(0.1 -0.1)">
       <use xlink:href="#DejaVuSans-31"/>
       <use xlink:href="#DejaVuSans-30" transform="translate(63.623047 0)"/>
      </g>
     </g>
    </g>
    <g id="ytick_5">
     <g id="line2d_27">
      <path d="M 44.615 54.736941 
L 650.88 54.736941 
" clip-path="url(#p9da7ddfa3b)" style="fill: none; stroke: #b0b0b0; stroke-opacity: 0.25; stroke-width: 0.8; stroke-linecap: square"/>
     </g>
     <g id="line2d_28">
      <g>
       <use xlink:href="#m5010030764" x="44.615" y="54.736941" style="stroke: #000000; stroke-width: 0.8"/>
      </g>
     </g>
     <g id="text_8">
      <!-- 12 -->
      <g transform="translate(24.89 58.53616) scale(0.1 -0.1)">
       <use xlink:href="#DejaVuSans-31"/>
       <use xlink:href="#DejaVuSans-32" transform="translate(63.623047 0)"/>
      </g>
     </g>
    </g>
    <g id="text_9">
     <!-- TESS -->
     <g transform="translate(18.810313 213.119719) rotate(-90) scale(0.1 -0.1)">
      <defs>
       <path id="DejaVuSans-54" d="M -19 4666 
L 3928 4666 
L 3928 4134 
L 2272 4134 
L 2272 0 
L 1638 0 
L 1638 4134 
L -19 4134 
L -19 4666 
z
" transform="scale(0.015625)"/>
       <path id="DejaVuSans-45" d="M 628 4666 
L 3578 4666 
L 3578 4134 
L 1259 4134 
L 1259 2753 
L 3481 2753 
L 3481 2222 
L 1259 2222 
L 1259 531 
L 3634 531 
L 3634 0 
L 628 0 
L 628 4666 
z
" transform="scale(0.015625)"/>
       <path id="DejaVuSans-53" d="M 3425 4513 
L 3425 3897 
Q 3066 4069 2747 4153 
Q 2428 4238 2131 4238 
Q 1616 4238 1336 4038 
Q 1056 3838 1056 3469 
Q 1056 3159 1242 3001 
Q 1428 2844 1947 2747 
L 2328 2669 
Q 3034 2534 3370 2195 
Q 3706 1856 3706 1288 
Q 3706 609 3251 259 
Q 2797 -91 1919 -91 
Q 1588 -91 1214 -16 
Q 841 59 441 206 
L 441 856 
Q 825 641 1194 531 
Q 1563 422 1919 422 
Q 2459 422 2753 634 
Q 3047 847 3047 1241 
Q 3047 1584 2836 1778 
Q 2625 1972 2144 2069 
L 1759 2144 
Q 1053 2284 737 2584 
Q 422 2884 422 3419 
Q 422 4038 858 4394 
Q 1294 4750 2059 4750 
Q 2388 4750 2728 4690 
Q 3069 4631 3425 4513 
z
" transform="scale(0.015625)"/>
      </defs>
      <use xlink:href="#DejaVuSans-54"/>
      <use xlink:href="#DejaVuSans-45" transform="translate(61.083984 0)"/>
      <use xlink:href="#DejaVuSans-53" transform="translate(124.267578 0)"/>
      <use xlink:href="#DejaVuSans-53" transform="translate(187.744141 0)"/>
     </g>
    </g>
   </g>
   <g id="line2d_29">
    <path d="M 72.1725 353.714921 
L 175.734591 342.339661 
L 279.296681 338.637599 
L 382.858772 323.9498 
L 519.760409 308.157467 
L 623.3225 263.08158 
" clip-path="url(#p9da7ddfa3b)" style="fill: none; stroke: #1f77b4; stroke-width: 1.5; stroke-linecap: square"/>
    <defs>
     <path id="mbe7c9ba53f" d="M 0 3 
C 0.795609 3 1.55874 2.683901 2.12132 2.12132 
C 2.683901 1.55874 3 0.795609 3 0 
C 3 -0.795609 2.683901 -1.55874 2.12132 -2.12132 
C 1.55874 -2.683901 0.795609 -3 0 -3 
C -0.795609 -3 -1.55874 -2.683901 -2.12132 -2.12132 
C -2.683901 -1.55874 -3 -0.795609 -3 0 
C -3 0.795609 -2.683901 1.55874 -2.12132 2.12132 
C -1.55874 2.683901 -0.795609 3 0 3 
z
" style="stroke: #1f77b4"/>
    </defs>
    <g clip-path="url(#p9da7ddfa3b)">
     <use xlink:href="#mbe7c9ba53f" x="72.1725" y="353.714921" style="fill: #1f77b4; stroke: #1f77b4"/>
     <use xlink:href="#mbe7c9ba53f" x="175.734591" y="342.339661" style="fill: #1f77b4; stroke: #1f77b4"/>
     <use xlink:href="#mbe7c9ba53f" x="279.296681" y="338.637599" style="fill: #1f77b4; stroke: #1f77b4"/>
     <use xlink:href="#mbe7c9ba53f" x="382.858772" y="323.9498" style="fill: #1f77b4; stroke: #1f77b4"/>
     <use xlink:href="#mbe7c9ba53f" x="519.760409" y="308.157467" style="fill: #1f77b4; stroke: #1f77b4"/>
     <use xlink:href="#mbe7c9ba53f" x="623.3225" y="263.08158" style="fill: #1f77b4; stroke: #1f77b4"/>
    </g>
   </g>
   <g id="line2d_30">
    <path d="M 72.1725 274.951028 
L 175.734591 250.930764 
L 279.296681 221.26286 
L 382.858772 187.070188 
L 519.760409 133.6309 
L 623.3225 92.062576 
" clip-path="url(#p9da7ddfa3b)" style="fill: none; stroke: #ff7f0e; stroke-width: 1.5; stroke-linecap: square"/>
    <defs>
     <path id="md26f0458a2" d="M 0 3 
C 0.795609 3 1.55874 2.683901 2.12132 2.12132 
C 2.683901 1.55874 3 0.795609 3 0 
C 3 -0.795609 2.683901 -1.55874 2.12132 -2.12132 
C 1.55874 -2.683901 0.795609 -3 0 -3 
C -0.795609 -3 -1.55874 -2.683901 -2.12132 -2.12132 
C -2.683901 -1.55874 -3 -0.795609 -3 0 
C -3 0.795609 -2.683901 1.55874 -2.12132 2.12132 
C -1.55874 2.683901 -0.795609 3 0 3 
z
" style="stroke: #ff7f0e"/>
    </defs>
    <g clip-path="url(#p9da7ddfa3b)">
     <use xlink:href="#md26f0458a2" x="72.1725" y="274.951028" style="fill: #ff7f0e; stroke: #ff7f0e"/>
     <use xlink:href="#md26f0458a2" x="175.734591" y="250.930764" style="fill: #ff7f0e; stroke: #ff7f0e"/>
     <use xlink:href="#md26f0458a2" x="279.296681" y="221.26286" style="fill: #ff7f0e; stroke: #ff7f0e"/>
     <use xlink:href="#md26f0458a2" x="382.858772" y="187.070188" style="fill: #ff7f0e; stroke: #ff7f0e"/>
     <use xlink:href="#md26f0458a2" x="519.760409" y="133.6309" style="fill: #ff7f0e; stroke: #ff7f0e"/>
     <use xlink:href="#md26f0458a2" x="623.3225" y="92.062576" style="fill: #ff7f0e; stroke: #ff7f0e"/>
    </g>
   </g>
   <g id="line2d_31">
    <path d="M 72.1725 320.140161 
L 175.734591 300.28278 
L 279.296681 283.114547 
L 382.858772 257.974265 
L 519.760409 225.100345 
L 623.3225 183.458011 
" clip-path="url(#p9da7ddfa3b)" style="fill: none; stroke: #2ca02c; stroke-width: 1.5; stroke-linecap: square"/>
    <defs>
     <path id="me689f0b6dd" d="M 0 3 
C 0.795609 3 1.55874 2.683901 2.12132 2.12132 
C 2.683901 1.55874 3 0.795609 3 0 
C 3 -0.795609 2.683901 -1.55874 2.12132 -2.12132 
C 1.55874 -2.683901 0.795609 -3 0 -3 
C -0.795609 -3 -1.55874 -2.683901 -2.12132 -2.12132 
C -2.683901 -1.55874 -3 -0.795609 -3 0 
C -3 0.795609 -2.683901 1.55874 -2.12132 2.12132 
C -1.55874 2.683901 -0.795609 3 0 3 
z
" style="stroke: #2ca02c"/>
    </defs>
    <g clip-path="url(#p9da7ddfa3b)">
     <use xlink:href="#me689f0b6dd" x="72.1725" y="320.140161" style="fill: #2ca02c; stroke: #2ca02c"/>
     <use xlink:href="#me689f0b6dd" x="175.734591" y="300.28278" style="fill: #2ca02c; stroke: #2ca02c"/>
     <use xlink:href="#me689f0b6dd" x="279.296681" y="283.114547" style="fill: #2ca02c; stroke: #2ca02c"/>
     <use xlink:href="#me689f0b6dd" x="382.858772" y="257.974265" style="fill: #2ca02c; stroke: #2ca02c"/>
     <use xlink:href="#me689f0b6dd" x="519.760409" y="225.100345" style="fill: #2ca02c; stroke: #2ca02c"/>
     <use xlink:href="#me689f0b6dd" x="623.3225" y="183.458011" style="fill: #2ca02c; stroke: #2ca02c"/>
    </g>
   </g>
   <g id="line2d_32">
    <path d="M 72.1725 353.714921 
L 175.734591 303.966222 
L 279.296681 252.547879 
L 382.858772 210.022359 
L 519.760409 151.460907 
L 623.3225 104.521747 
" clip-path="url(#p9da7ddfa3b)" style="fill: none; stroke: #d62728; stroke-width: 1.5; stroke-linecap: square"/>
    <defs>
     <path id="me7b5b11887" d="M 0 3 
C 0.795609 3 1.55874 2.683901 2.12132 2.12132 
C 2.683901 1.55874 3 0.795609 3 0 
C 3 -0.795609 2.683901 -1.55874 2.12132 -2.12132 
C 1.55874 -2.683901 0.795609 -3 0 -3 
C -0.795609 -3 -1.55874 -2.683901 -2.12132 -2.12132 
C -2.683901 -1.55874 -3 -0.795609 -3 0 
C -3 0.795609 -2.683901 1.55874 -2.12132 2.12132 
C -1.55874 2.683901 -0.795609 3 0 3 
z
" style="stroke: #d62728"/>
    </defs>
    <g clip-path="url(#p9da7ddfa3b)">
     <use xlink:href="#me7b5b11887" x="72.1725" y="353.714921" style="fill: #d62728; stroke: #d62728"/>
     <use xlink:href="#me7b5b11887" x="175.734591" y="303.966222" style="fill: #d62728; stroke: #d62728"/>
     <use xlink:href="#me7b5b11887" x="279.296681" y="252.547879" style="fill: #d62728; stroke: #d62728"/>
     <use xlink:href="#me7b5b11887" x="382.858772" y="210.022359" style="fill: #d62728; stroke: #d62728"/>
     <use xlink:href="#me7b5b11887" x="519.760409" y="151.460907" style="fill: #d62728; stroke: #d62728"/>
     <use xlink:href="#me7b5b11887" x="623.3225" y="104.521747" style="fill: #d62728; stroke: #d62728"/>
    </g>
   </g>
   <g id="line2d_33">
    <path d="M 72.1725 274.951028 
L 175.734591 295.185384 
L 279.296681 310.943279 
L 382.858772 302.732782 
L 519.760409 291.072732 
L 623.3225 250.887608 
" clip-path="url(#p9da7ddfa3b)" style="fill: none; stroke: #9467bd; stroke-width: 1.5; stroke-linecap: square"/>
    <defs>
     <path id="mde082a6bbb" d="M 0 3 
C 0.795609 3 1.55874 2.683901 2.12132 2.12132 
C 2.683901 1.55874 3 0.795609 3 0 
C 3 -0.795609 2.683901 -1.55874 2.12132 -2.12132 
C 1.55874 -2.683901 0.795609 -3 0 -3 
C -0.795609 -3 -1.55874 -2.683901 -2.12132 -2.12132 
C -2.683901 -1.55874 -3 -0.795609 -3 0 
C -3 0.795609 -2.683901 1.55874 -2.12132 2.12132 
C -1.55874 2.683901 -0.795609 3 0 3 
z
" style="stroke: #9467bd"/>
    </defs>
    <g clip-path="url(#p9da7ddfa3b)">
     <use xlink:href="#mde082a6bbb" x="72.1725" y="274.951028" style="fill: #9467bd; stroke: #9467bd"/>
     <use xlink:href="#mde082a6bbb" x="175.734591" y="295.185384" style="fill: #9467bd; stroke: #9467bd"/>
     <use xlink:href="#mde082a6bbb" x="279.296681" y="310.943279" style="fill: #9467bd; stroke: #9467bd"/>
     <use xlink:href="#mde082a6bbb" x="382.858772" y="302.732782" style="fill: #9467bd; stroke: #9467bd"/>
     <use xlink:href="#mde082a6bbb" x="519.760409" y="291.072732" style="fill: #9467bd; stroke: #9467bd"/>
     <use xlink:href="#mde082a6bbb" x="623.3225" y="250.887608" style="fill: #9467bd; stroke: #9467bd"/>
    </g>
   </g>
   <g id="patch_3">
    <path d="M 44.615 374.956 
L 44.615 26.16 
" style="fill: none; stroke: #000000; stroke-width: 0.8; stroke-linejoin: miter; stroke-linecap: square"/>
   </g>
   <g id="patch_4">
    <path d="M 650.88 374.956 
L 650.88 26.16 
" style="fill: none; stroke: #000000; stroke-width: 0.8; stroke-linejoin: miter; stroke-linecap: square"/>
   </g>
   <g id="patch_5">
    <path d="M 44.615 374.956 
L 650.88 374.956 
" style="fill: none; stroke: #000000; stroke-width: 0.8; stroke-linejoin: miter; stroke-linecap: square"/>
   </g>
   <g id="patch_6">
    <path d="M 44.615 26.16 
L 650.88 26.16 
" style="fill: none; stroke: #000000; stroke-width: 0.8; stroke-linejoin: miter; stroke-linecap: square"/>
   </g>
   <g id="text_10">
    <!-- Adaptive ML search policies: mixed_realistic_20 -->
    <g transform="translate(205.008438 20.16) scale(0.12 -0.12)">
     <defs>
      <path id="DejaVuSans-41" d="M 2188 4044 
L 1331 1722 
L 3047 1722 
L 2188 4044 
z
M 1831 4666 
L 2547 4666 
L 4325 0 
L 3669 0 
L 3244 1197 
L 1141 1197 
L 716 0 
L 50 0 
L 1831 4666 
z
" transform="scale(0.015625)"/>
      <path id="DejaVuSans-76" d="M 191 3500 
L 800 3500 
L 1894 563 
L 2988 3500 
L 3597 3500 
L 2284 0 
L 1503 0 
L 191 3500 
z
" transform="scale(0.015625)"/>
      <path id="DejaVuSans-4d" d="M 628 4666 
L 1569 4666 
L 2759 1491 
L 3956 4666 
L 4897 4666 
L 4897 0 
L 4281 0 
L 4281 4097 
L 3078 897 
L 2444 897 
L 1241 4097 
L 1241 0 
L 628 0 
L 628 4666 
z
" transform="scale(0.015625)"/>
      <path id="DejaVuSans-3a" d="M 750 794 
L 1409 794 
L 1409 0 
L 750 0 
L 750 794 
z
M 750 3309 
L 1409 3309 
L 1409 2516 
L 750 2516 
L 750 3309 
z
" transform="scale(0.015625)"/>
      <path id="DejaVuSans-78" d="M 3513 3500 
L 2247 1797 
L 3578 0 
L 2900 0 
L 1881 1375 
L 863 0 
L 184 0 
L 1544 1831 
L 300 3500 
L 978 3500 
L 1906 2253 
L 2834 3500 
L 3513 3500 
z
" transform="scale(0.015625)"/>
      <path id="DejaVuSans-5f" d="M 3263 -1063 
L 3263 -1509 
L -63 -1509 
L -63 -1063 
L 3263 -1063 
z
" transform="scale(0.015625)"/>
     </defs>
     <use xlink:href="#DejaVuSans-41"/>
     <use xlink:href="#DejaVuSans-64" transform="translate(66.658203 0)"/>
     <use xlink:href="#DejaVuSans-61" transform="translate(130.134766 0)"/>
     <use xlink:href="#DejaVuSans-70" transform="translate(191.414062 0)"/>
     <use xlink:href="#DejaVuSans-74" transform="translate(254.890625 0)"/>
     <use xlink:href="#DejaVuSans-69" transform="translate(294.099609 0)"/>
     <use xlink:href="#DejaVuSans-76" transform="translate(321.882812 0)"/>
     <use xlink:href="#DejaVuSans-65" transform="translate(381.0625 0)"/>
     <use xlink:href="#DejaVuSans-20" transform="translate(442.585938 0)"/>
     <use xlink:href="#DejaVuSans-4d" transform="translate(474.373047 0)"/>
     <use xlink:href="#DejaVuSans-4c" transform="translate(560.652344 0)"/>
     <use xlink:href="#DejaVuSans-20" transform="translate(616.365234 0)"/>
     <use xlink:href="#DejaVuSans-73" transform="translate(648.152344 0)"/>
     <use xlink:href="#DejaVuSans-65" transform="translate(700.251953 0)"/>
     <use xlink:href="#DejaVuSans-61" transform="translate(761.775391 0)"/>
     <use xlink:href="#DejaVuSans-72" transform="translate(823.054688 0)"/>
     <use xlink:href="#DejaVuSans-63" transform="translate(861.917969 0)"/>
     <use xlink:href="#DejaVuSans-68" transform="translate(916.898438 0)"/>
     <use xlink:href="#DejaVuSans-20" transform="translate(980.277344 0)"/>
     <use xlink:href="#DejaVuSans-70" transform="translate(1012.064453 0)"/>
     <use xlink:href="#DejaVuSans-6f" transform="translate(1075.541016 0)"/>
     <use xlink:href="#DejaVuSans-6c" transform="translate(1136.722656 0)"/>
     <use xlink:href="#DejaVuSans-69" transform="translate(1164.505859 0)"/>
     <use xlink:href="#DejaVuSans-63" transform="translate(1192.289062 0)"/>
     <use xlink:href="#DejaVuSans-69" transform="translate(1247.269531 0)"/>
     <use xlink:href="#DejaVuSans-65" transform="translate(1275.052734 0)"/>
     <use xlink:href="#DejaVuSans-73" transform="translate(1336.576172 0)"/>
     <use xlink:href="#DejaVuSans-3a" transform="translate(1388.675781 0)"/>
     <use xlink:href="#DejaVuSans-20" transform="translate(1422.367188 0)"/>
     <use xlink:href="#DejaVuSans-6d" transform="translate(1454.154297 0)"/>
     <use xlink:href="#DejaVuSans-69" transform="translate(1551.566406 0)"/>
     <use xlink:href="#DejaVuSans-78" transform="translate(1579.349609 0)"/>
     <use xlink:href="#DejaVuSans-65" transform="translate(1635.404297 0)"/>
     <use xlink:href="#DejaVuSans-64" transform="translate(1696.927734 0)"/>
     <use xlink:href="#DejaVuSans-5f" transform="translate(1760.404297 0)"/>
     <use xlink:href="#DejaVuSans-72" transform="translate(1810.404297 0)"/>
     <use xlink:href="#DejaVuSans-65" transform="translate(1849.267578 0)"/>
     <use xlink:href="#DejaVuSans-61" transform="translate(1910.791016 0)"/>
     <use xlink:href="#DejaVuSans-6c" transform="translate(1972.070312 0)"/>
     <use xlink:href="#DejaVuSans-69" transform="translate(1999.853516 0)"/>
     <use xlink:href="#DejaVuSans-73" transform="translate(2027.636719 0)"/>
     <use xlink:href="#DejaVuSans-74" transform="translate(2079.736328 0)"/>
     <use xlink:href="#DejaVuSans-69" transform="translate(2118.945312 0)"/>
     <use xlink:href="#DejaVuSans-63" transform="translate(2146.728516 0)"/>
     <use xlink:href="#DejaVuSans-5f" transform="translate(2201.708984 0)"/>
     <use xlink:href="#DejaVuSans-32" transform="translate(2251.708984 0)"/>
     <use xlink:href="#DejaVuSans-30" transform="translate(2315.332031 0)"/>
    </g>
   </g>
   <g id="legend_1">
    <g id="patch_7">
     <path d="M 51.615 107.550625 
L 203.922813 107.550625 
Q 205.922813 107.550625 205.922813 105.550625 
L 205.922813 33.16 
Q 205.922813 31.16 203.922813 31.16 
L 51.615 31.16 
Q 49.615 31.16 49.615 33.16 
L 49.615 105.550625 
Q 49.615 107.550625 51.615 107.550625 
z
" style="fill: #ffffff; opacity: 0.8; stroke: #cccccc; stroke-linejoin: miter"/>
    </g>
    <g id="line2d_34">
     <path d="M 53.615 39.258437 
L 63.615 39.258437 
L 73.615 39.258437 
" style="fill: none; stroke: #1f77b4; stroke-width: 1.5; stroke-linecap: square"/>
     <g>
      <use xlink:href="#mbe7c9ba53f" x="63.615" y="39.258437" style="fill: #1f77b4; stroke: #1f77b4"/>
     </g>
    </g>
    <g id="text_11">
     <!-- Fixed base (K=7) -->
     <g transform="translate(81.615 42.758437) scale(0.1 -0.1)">
      <defs>
       <path id="DejaVuSans-46" d="M 628 4666 
L 3309 4666 
L 3309 4134 
L 1259 4134 
L 1259 2759 
L 3109 2759 
L 3109 2228 
L 1259 2228 
L 1259 0 
L 628 0 
L 628 4666 
z
" transform="scale(0.015625)"/>
       <path id="DejaVuSans-62" d="M 3116 1747 
Q 3116 2381 2855 2742 
Q 2594 3103 2138 3103 
Q 1681 3103 1420 2742 
Q 1159 2381 1159 1747 
Q 1159 1113 1420 752 
Q 1681 391 2138 391 
Q 2594 391 2855 752 
Q 3116 1113 3116 1747 
z
M 1159 2969 
Q 1341 3281 1617 3432 
Q 1894 3584 2278 3584 
Q 2916 3584 3314 3078 
Q 3713 2572 3713 1747 
Q 3713 922 3314 415 
Q 2916 -91 2278 -91 
Q 1894 -91 1617 61 
Q 1341 213 1159 525 
L 1159 0 
L 581 0 
L 581 4863 
L 1159 4863 
L 1159 2969 
z
" transform="scale(0.015625)"/>
       <path id="DejaVuSans-4b" d="M 628 4666 
L 1259 4666 
L 1259 2694 
L 3353 4666 
L 4166 4666 
L 1850 2491 
L 4331 0 
L 3500 0 
L 1259 2247 
L 1259 0 
L 628 0 
L 628 4666 
z
" transform="scale(0.015625)"/>
       <path id="DejaVuSans-37" d="M 525 4666 
L 3525 4666 
L 3525 4397 
L 1831 0 
L 1172 0 
L 2766 4134 
L 525 4134 
L 525 4666 
z
" transform="scale(0.015625)"/>
      </defs>
      <use xlink:href="#DejaVuSans-46"/>
      <use xlink:href="#DejaVuSans-69" transform="translate(50.269531 0)"/>
      <use xlink:href="#DejaVuSans-78" transform="translate(78.052734 0)"/>
      <use xlink:href="#DejaVuSans-65" transform="translate(134.107422 0)"/>
      <use xlink:href="#DejaVuSans-64" transform="translate(195.630859 0)"/>
      <use xlink:href="#DejaVuSans-20" transform="translate(259.107422 0)"/>
      <use xlink:href="#DejaVuSans-62" transform="translate(290.894531 0)"/>
      <use xlink:href="#DejaVuSans-61" transform="translate(354.371094 0)"/>
      <use xlink:href="#DejaVuSans-73" transform="translate(415.650391 0)"/>
      <use xlink:href="#DejaVuSans-65" transform="translate(467.75 0)"/>
      <use xlink:href="#DejaVuSans-20" transform="translate(529.273438 0)"/>
      <use xlink:href="#DejaVuSans-28" transform="translate(561.060547 0)"/>
      <use xlink:href="#DejaVuSans-4b" transform="translate(600.074219 0)"/>
      <use xlink:href="#DejaVuSans-3d" transform="translate(665.650391 0)"/>
      <use xlink:href="#DejaVuSans-37" transform="translate(749.439453 0)"/>
      <use xlink:href="#DejaVuSans-29" transform="translate(813.0625 0)"/>
     </g>
    </g>
    <g id="line2d_35">
     <path d="M 53.615 53.936562 
L 63.615 53.936562 
L 73.615 53.936562 
" style="fill: none; stroke: #ff7f0e; stroke-width: 1.5; stroke-linecap: square"/>
     <g>
      <use xlink:href="#md26f0458a2" x="63.615" y="53.936562" style="fill: #ff7f0e; stroke: #ff7f0e"/>
     </g>
    </g>
    <g id="text_12">
     <!-- Fixed full (K=20) -->
     <g transform="translate(81.615 57.436562) scale(0.1 -0.1)">
      <defs>
       <path id="DejaVuSans-66" d="M 2375 4863 
L 2375 4384 
L 1825 4384 
Q 1516 4384 1395 4259 
Q 1275 4134 1275 3809 
L 1275 3500 
L 2222 3500 
L 2222 3053 
L 1275 3053 
L 1275 0 
L 697 0 
L 697 3053 
L 147 3053 
L 147 3500 
L 697 3500 
L 697 3744 
Q 697 4328 969 4595 
Q 1241 4863 1831 4863 
L 2375 4863 
z
" transform="scale(0.015625)"/>
       <path id="DejaVuSans-75" d="M 544 1381 
L 544 3500 
L 1119 3500 
L 1119 1403 
Q 1119 906 1312 657 
Q 1506 409 1894 409 
Q 2359 409 2629 706 
Q 2900 1003 2900 1516 
L 2900 3500 
L 3475 3500 
L 3475 0 
L 2900 0 
L 2900 538 
Q 2691 219 2414 64 
Q 2138 -91 1772 -91 
Q 1169 -91 856 284 
Q 544 659 544 1381 
z
M 1991 3584 
L 1991 3584 
z
" transform="scale(0.015625)"/>
      </defs>
      <use xlink:href="#DejaVuSans-46"/>
      <use xlink:href="#DejaVuSans-69" transform="translate(50.269531 0)"/>
      <use xlink:href="#DejaVuSans-78" transform="translate(78.052734 0)"/>
      <use xlink:href="#DejaVuSans-65" transform="translate(134.107422 0)"/>
      <use xlink:href="#DejaVuSans-64" transform="translate(195.630859 0)"/>
      <use xlink:href="#DejaVuSans-20" transform="translate(259.107422 0)"/>
      <use xlink:href="#DejaVuSans-66" transform="translate(290.894531 0)"/>
      <use xlink:href="#DejaVuSans-75" transform="translate(326.099609 0)"/>
      <use xlink:href="#DejaVuSans-6c" transform="translate(389.478516 0)"/>
      <use xlink:href="#DejaVuSans-6c" transform="translate(417.261719 0)"/>
      <use xlink:href="#DejaVuSans-20" transform="translate(445.044922 0)"/>
      <use xlink:href="#DejaVuSans-28" transform="translate(476.832031 0)"/>
      <use xlink:href="#DejaVuSans-4b" transform="translate(515.845703 0)"/>
      <use xlink:href="#DejaVuSans-3d" transform="translate(581.421875 0)"/>
      <use xlink:href="#DejaVuSans-32" transform="translate(665.210938 0)"/>
      <use xlink:href="#DejaVuSans-30" transform="translate(728.833984 0)"/>
      <use xlink:href="#DejaVuSans-29" transform="translate(792.457031 0)"/>
     </g>
    </g>
    <g id="line2d_36">
     <path d="M 53.615 68.614687 
L 63.615 68.614687 
L 73.615 68.614687 
" style="fill: none; stroke: #2ca02c; stroke-width: 1.5; stroke-linecap: square"/>
     <g>
      <use xlink:href="#me689f0b6dd" x="63.615" y="68.614687" style="fill: #2ca02c; stroke: #2ca02c"/>
     </g>
    </g>
    <g id="text_13">
     <!-- Random expansion -->
     <g transform="translate(81.615 72.114687) scale(0.1 -0.1)">
      <defs>
       <path id="DejaVuSans-52" d="M 2841 2188 
Q 3044 2119 3236 1894 
Q 3428 1669 3622 1275 
L 4263 0 
L 3584 0 
L 2988 1197 
Q 2756 1666 2539 1819 
Q 2322 1972 1947 1972 
L 1259 1972 
L 1259 0 
L 628 0 
L 628 4666 
L 2053 4666 
Q 2853 4666 3247 4331 
Q 3641 3997 3641 3322 
Q 3641 2881 3436 2590 
Q 3231 2300 2841 2188 
z
M 1259 4147 
L 1259 2491 
L 2053 2491 
Q 2509 2491 2742 2702 
Q 2975 2913 2975 3322 
Q 2975 3731 2742 3939 
Q 2509 4147 2053 4147 
L 1259 4147 
z
" transform="scale(0.015625)"/>
       <path id="DejaVuSans-6e" d="M 3513 2113 
L 3513 0 
L 2938 0 
L 2938 2094 
Q 2938 2591 2744 2837 
Q 2550 3084 2163 3084 
Q 1697 3084 1428 2787 
Q 1159 2491 1159 1978 
L 1159 0 
L 581 0 
L 581 3500 
L 1159 3500 
L 1159 2956 
Q 1366 3272 1645 3428 
Q 1925 3584 2291 3584 
Q 2894 3584 3203 3211 
Q 3513 2838 3513 2113 
z
" transform="scale(0.015625)"/>
      </defs>
      <use xlink:href="#DejaVuSans-52"/>
      <use xlink:href="#DejaVuSans-61" transform="translate(67.232422 0)"/>
      <use xlink:href="#DejaVuSans-6e" transform="translate(128.511719 0)"/>
      <use xlink:href="#DejaVuSans-64" transform="translate(191.890625 0)"/>
      <use xlink:href="#DejaVuSans-6f" transform="translate(255.367188 0)"/>
      <use xlink:href="#DejaVuSans-6d" transform="translate(316.548828 0)"/>
      <use xlink:href="#DejaVuSans-20" transform="translate(413.960938 0)"/>
      <use xlink:href="#DejaVuSans-65" transform="translate(445.748047 0)"/>
      <use xlink:href="#DejaVuSans-78" transform="translate(505.521484 0)"/>
      <use xlink:href="#DejaVuSans-70" transform="translate(564.701172 0)"/>
      <use xlink:href="#DejaVuSans-61" transform="translate(628.177734 0)"/>
      <use xlink:href="#DejaVuSans-6e" transform="translate(689.457031 0)"/>
      <use xlink:href="#DejaVuSans-73" transform="translate(752.835938 0)"/>
      <use xlink:href="#DejaVuSans-69" transform="translate(804.935547 0)"/>
      <use xlink:href="#DejaVuSans-6f" transform="translate(832.71875 0)"/>
      <use xlink:href="#DejaVuSans-6e" transform="translate(893.900391 0)"/>
     </g>
    </g>
    <g id="line2d_37">
     <path d="M 53.615 83.292812 
L 63.615 83.292812 
L 73.615 83.292812 
" style="fill: none; stroke: #d62728; stroke-width: 1.5; stroke-linecap: square"/>
     <g>
      <use xlink:href="#me7b5b11887" x="63.615" y="83.292812" style="fill: #d62728; stroke: #d62728"/>
     </g>
    </g>
    <g id="text_14">
     <!-- Expand when promising -->
     <g transform="translate(81.615 86.792812) scale(0.1 -0.1)">
      <defs>
       <path id="DejaVuSans-77" d="M 269 3500 
L 844 3500 
L 1563 769 
L 2278 3500 
L 2956 3500 
L 3675 769 
L 4391 3500 
L 4966 3500 
L 4050 0 
L 3372 0 
L 2619 2869 
L 1863 0 
L 1184 0 
L 269 3500 
z
" transform="scale(0.015625)"/>
       <path id="DejaVuSans-67" d="M 2906 1791 
Q 2906 2416 2648 2759 
Q 2391 3103 1925 3103 
Q 1463 3103 1205 2759 
Q 947 2416 947 1791 
Q 947 1169 1205 825 
Q 1463 481 1925 481 
Q 2391 481 2648 825 
Q 2906 1169 2906 1791 
z
M 3481 434 
Q 3481 -459 3084 -895 
Q 2688 -1331 1869 -1331 
Q 1566 -1331 1297 -1286 
Q 1028 -1241 775 -1147 
L 775 -588 
Q 1028 -725 1275 -790 
Q 1522 -856 1778 -856 
Q 2344 -856 2625 -561 
Q 2906 -266 2906 331 
L 2906 616 
Q 2728 306 2450 153 
Q 2172 0 1784 0 
Q 1141 0 747 490 
Q 353 981 353 1791 
Q 353 2603 747 3093 
Q 1141 3584 1784 3584 
Q 2172 3584 2450 3431 
Q 2728 3278 2906 2969 
L 2906 3500 
L 3481 3500 
L 3481 434 
z
" transform="scale(0.015625)"/>
      </defs>
      <use xlink:href="#DejaVuSans-45"/>
      <use xlink:href="#DejaVuSans-78" transform="translate(63.183594 0)"/>
      <use xlink:href="#DejaVuSans-70" transform="translate(122.363281 0)"/>
      <use xlink:href="#DejaVuSans-61" transform="translate(185.839844 0)"/>
      <use xlink:href="#DejaVuSans-6e" transform="translate(247.119141 0)"/>
      <use xlink:href="#DejaVuSans-64" transform="translate(310.498047 0)"/>
      <use xlink:href="#DejaVuSans-20" transform="translate(373.974609 0)"/>
      <use xlink:href="#DejaVuSans-77" transform="translate(405.761719 0)"/>
      <use xlink:href="#DejaVuSans-68" transform="translate(487.548828 0)"/>
      <use xlink:href="#DejaVuSans-65" transform="translate(550.927734 0)"/>
      <use xlink:href="#DejaVuSans-6e" transform="translate(612.451172 0)"/>
      <use xlink:href="#DejaVuSans-20" transform="translate(675.830078 0)"/>
      <use xlink:href="#DejaVuSans-70" transform="translate(707.617188 0)"/>
      <use xlink:href="#DejaVuSans-72" transform="translate(771.09375 0)"/>
      <use xlink:href="#DejaVuSans-6f" transform="translate(809.957031 0)"/>
      <use xlink:href="#DejaVuSans-6d" transform="translate(871.138672 0)"/>
      <use xlink:href="#DejaVuSans-69" transform="translate(968.550781 0)"/>
      <use xlink:href="#DejaVuSans-73" transform="translate(996.333984 0)"/>
      <use xlink:href="#DejaVuSans-69" transform="translate(1048.433594 0)"/>
      <use xlink:href="#DejaVuSans-6e" transform="translate(1076.216797 0)"/>
      <use xlink:href="#DejaVuSans-67" transform="translate(1139.595703 0)"/>
     </g>
    </g>
    <g id="line2d_38">
     <path d="M 53.615 97.970937 
L 63.615 97.970937 
L 73.615 97.970937 
" style="fill: none; stroke: #9467bd; stroke-width: 1.5; stroke-linecap: square"/>
     <g>
      <use xlink:href="#mde082a6bbb" x="63.615" y="97.970937" style="fill: #9467bd; stroke: #9467bd"/>
     </g>
    </g>
    <g id="text_15">
     <!-- Expand for rescue -->
     <g transform="translate(81.615 101.470937) scale(0.1 -0.1)">
      <use xlink:href="#DejaVuSans-45"/>
      <use xlink:href="#DejaVuSans-78" transform="translate(63.183594 0)"/>
      <use xlink:href="#DejaVuSans-70" transform="translate(122.363281 0)"/>
      <use xlink:href="#DejaVuSans-61" transform="translate(185.839844 0)"/>
      <use xlink:href="#DejaVuSans-6e" transform="translate(247.119141 0)"/>
      <use xlink:href="#DejaVuSans-64" transform="translate(310.498047 0)"/>
      <use xlink:href="#DejaVuSans-20" transform="translate(373.974609 0)"/>
      <use xlink:href="#DejaVuSans-66" transform="translate(405.761719 0)"/>
      <use xlink:href="#DejaVuSans-6f" transform="translate(440.966797 0)"/>
      <use xlink:href="#DejaVuSans-72" transform="translate(502.148438 0)"/>
      <use xlink:href="#DejaVuSans-20" transform="translate(543.261719 0)"/>
      <use xlink:href="#DejaVuSans-72" transform="translate(575.048828 0)"/>
      <use xlink:href="#DejaVuSans-65" transform="translate(613.912109 0)"/>
      <use xlink:href="#DejaVuSans-73" transform="translate(675.435547 0)"/>
      <use xlink:href="#DejaVuSans-63" transform="translate(727.535156 0)"/>
      <use xlink:href="#DejaVuSans-75" transform="translate(782.515625 0)"/>
      <use xlink:href="#DejaVuSans-65" transform="translate(845.894531 0)"/>
     </g>
    </g>
   </g>
  </g>
 </g>
 <defs>
  <clipPath id="p9da7ddfa3b">
   <rect x="44.615" y="26.16" width="606.265" height="348.796"/>
  </clipPath>
 </defs>
</svg>
